<svg id="Layer_1" data-name="Layer 1" xmlns="http://www.w3.org/2000/svg" xmlns:xlink="http://www.w3.org/1999/xlink" viewBox="0 0 150 150"><defs><style>.cls-1,.cls-3{fill:none;}.cls-2{fill:#ef245f;}.cls-3{stroke:#11152b;stroke-linecap:round;stroke-width:5.43px;}.cls-4{clip-path:url(#clip-path);}.cls-5{fill:#fff;}.cls-6{fill:#11152b;}</style><clipPath id="clip-path" transform="translate(-0.85 -0.85)"><rect class="cls-1" x="0.85" y="0.85" width="150" height="150"/></clipPath></defs><title>games2</title><circle class="cls-2" cx="75" cy="75" r="75"/><path class="cls-3" d="M122.69,133.62" transform="translate(-0.85 -0.85)"/><path class="cls-3" d="M29,133.62" transform="translate(-0.85 -0.85)"/><g class="cls-4"><path class="cls-5" d="M127.59,75.31c-1.72-13.51-8.78-34.21-27.13-34.21-13.7,0-10.95,7.16-19.77,7.16H71c-8.82,0-6.07-7.16-19.77-7.16-18.36,0-25.42,20.7-27.13,34.21-1.34,10.58-3.4,35.28,8.24,35.28s17.65-19,28.46-19H90.89c10.81,0,16.82,19,28.46,19s9.58-24.7,8.24-35.28" transform="translate(-0.85 -0.85)"/></g><g class="cls-4"><path class="cls-6" d="M60.81,88.89H90.89c6.51,0,11.18,5.15,15.69,10.12,4.14,4.56,8,8.86,12.77,8.86a4,4,0,0,0,3.18-1.45c3.48-4,4.35-15.17,2.36-30.77-1-7.93-3.54-15.61-6.94-21.08-4.45-7.14-10.33-10.76-17.5-10.76-6.59,0-8.54,1.7-10.62,3.5A12.24,12.24,0,0,1,80.67,51H71a12.29,12.29,0,0,1-9.16-3.66c-2.07-1.8-4-3.5-10.62-3.5-7.17,0-13.06,3.62-17.5,10.76C30.33,60,27.8,67.71,26.79,75.65c-2,15.6-1.12,26.82,2.36,30.77a4,4,0,0,0,3.18,1.45c4.72,0,8.63-4.31,12.77-8.86,4.53-5,9.2-10.12,15.71-10.12m58.54,24.42c-7.13,0-12.26-5.66-16.79-10.65-3.89-4.29-7.57-8.34-11.67-8.34H60.81c-4.1,0-7.78,4.05-11.67,8.34-4.53,5-9.66,10.65-16.79,10.65A9.45,9.45,0,0,1,25.09,110c-2.94-3.34-4.48-9-4.72-17.37A116,116,0,0,1,21.42,75c.65-5.1,2.51-14.91,7.72-23.26C34.57,43,42.21,38.39,51.25,38.39c8.62,0,11.7,2.68,14.18,4.84,1.67,1.45,2.68,2.33,5.59,2.33h9.66c2.91,0,3.92-.88,5.59-2.33,2.48-2.15,5.56-4.84,14.18-4.84,9,0,16.69,4.61,22.11,13.32,5.2,8.35,7.07,18.16,7.72,23.26h0a117.3,117.3,0,0,1,1.05,17.68c-.24,8.35-1.78,14-4.72,17.37a9.45,9.45,0,0,1-7.26,3.29" transform="translate(-0.85 -0.85)"/></g><g class="cls-4"><path class="cls-6" d="M56,72H63.4a11.55,11.55,0,0,0,.6-3.69,11.84,11.84,0,0,0-.6-3.69H56V57.18a11.55,11.55,0,0,0-3.69-.6,11.84,11.84,0,0,0-3.69.6v7.39H41.24a11.55,11.55,0,0,0-.6,3.69,11.84,11.84,0,0,0,.6,3.69h7.39v7.39a11.55,11.55,0,0,0,3.69.6,11.84,11.84,0,0,0,3.69-.6Z" transform="translate(-0.85 -0.85)"/></g><g class="cls-4"><path class="cls-2" d="M96.36,64.4A5.37,5.37,0,1,0,91,59a5.37,5.37,0,0,0,5.37,5.37" transform="translate(-0.85 -0.85)"/></g><g class="cls-4"><path class="cls-2" d="M96.36,82.86A5.37,5.37,0,1,0,91,77.49a5.37,5.37,0,0,0,5.37,5.37" transform="translate(-0.85 -0.85)"/></g><g class="cls-4"><path class="cls-2" d="M110.6,73.63a5.37,5.37,0,1,0-5.37-5.37,5.37,5.37,0,0,0,5.37,5.37" transform="translate(-0.85 -0.85)"/></g></svg>